<?xml version="1.0" standalone="no"?>
<svg version="1.1" id="Layer_1" xmlns="http://www.w3.org/2000/svg" xmlns:xlink="http://www.w3.org/1999/xlink" x="0px" y="0px"
	 width="371px" height="457.896px" viewBox="0 -40.896 371 457.896" enable-background="new 0 -40.896 371 457.896"
	 xml:space="preserve">
<g>
	<defs>
		<rect id="SVGID_1_" y="-147" width="371" height="564"/>
	</defs>
	<clipPath id="SVGID_2_">
		<use xlink:href="#SVGID_1_"  overflow="visible"/>
	</clipPath>
	<g clip-path="url(#SVGID_2_)">
		<path fill="#EC6D72" d="M32,13H8c-4.418,0-8-3.582-8-8v-24c0-4.418,3.582-8,8-8h24c4.418,0,8,3.582,8,8V5
			C40,9.418,36.418,13,32,13z"/>
		<path fill="#EC6D72" d="M0,65V41c0-4.418,3.582-8,8-8h24c4.418,0,8,3.582,8,8v24c0,4.418-3.582,8-8,8H8C3.582,73,0,69.418,0,65z"
			/>
		<path fill="#F6E472" d="M0,125v-24c0-4.418,3.582-8,8-8h24c4.418,0,8,3.582,8,8v24c0,4.418-3.582,8-8,8H8
			C3.582,133,0,129.418,0,125z"/>
		<path fill="#F6E472" d="M32,193H8c-4.418,0-8-3.582-8-8v-24c0-4.418,3.582-8,8-8h24c4.418,0,8,3.582,8,8v24
			C40,189.418,36.418,193,32,193z"/>
		<path fill="#EC6D72" d="M40,221v24c0,4.418-3.582,8-8,8H8c-4.418,0-8-3.582-8-8v-24c0-4.418,3.582-8,8-8h24
			C36.418,213,40,216.582,40,221z"/>
		<path fill="#78C88C" d="M40,281v24c0,4.418-3.582,8-8,8H8c-4.418,0-8-3.582-8-8v-24c0-4.418,3.582-8,8-8h24
			C36.418,273,40,276.582,40,281z"/>
		<path fill="#EC6D72" d="M0,365v-24c0-4.418,3.582-8,8-8h24c4.418,0,8,3.582,8,8v24c0,4.418-3.582,8-8,8H8
			C3.582,373,0,369.418,0,365z"/>
		<path fill="#F6E472" d="M32,433H8c-4.418,0-8-3.582-8-8v-24c0-4.418,3.582-8,8-8h24c4.418,0,8,3.582,8,8v24
			C40,429.418,36.418,433,32,433z"/>
		<path fill="#F6E472" d="M85,13H61c-4.418,0-8-3.582-8-8v-24c0-4.418,3.582-8,8-8h24c4.418,0,8,3.582,8,8V5
			C93,9.418,89.418,13,85,13z"/>
		<path fill="#F6E472" d="M53,65V41c0-4.418,3.582-8,8-8h24c4.418,0,8,3.582,8,8v24c0,4.418-3.582,8-8,8H61
			C56.582,73,53,69.418,53,65z"/>
		<path fill="#EC6D72" d="M85,133H61c-4.418,0-8-3.582-8-8v-24c0-4.418,3.582-8,8-8h24c4.418,0,8,3.582,8,8v24
			C93,129.418,89.418,133,85,133z"/>
		<path fill="#69AECD" d="M61,153h24c4.418,0,8,3.582,8,8v24c0,4.418-3.582,8-8,8H61c-4.418,0-8-3.582-8-8v-24
			C53,156.582,56.582,153,61,153z"/>
		<path fill="#F6E472" d="M85,253H61c-4.418,0-8-3.582-8-8v-24c0-4.418,3.582-8,8-8h24c4.418,0,8,3.582,8,8v24
			C93,249.418,89.418,253,85,253z"/>
		<path fill="#78C88C" d="M85,313H61c-4.418,0-8-3.582-8-8v-24c0-4.418,3.582-8,8-8h24c4.418,0,8,3.582,8,8v24
			C93,309.418,89.418,313,85,313z"/>
		<path fill="#69AECD" d="M53,365v-24c0-4.418,3.582-8,8-8h24c4.418,0,8,3.582,8,8v24c0,4.418-3.582,8-8,8H61
			C56.582,373,53,369.418,53,365z"/>
		<path fill="#78C88C" d="M85,433H61c-4.418,0-8-3.582-8-8v-24c0-4.418,3.582-8,8-8h24c4.418,0,8,3.582,8,8v24
			C93,429.418,89.418,433,85,433z"/>
		<path fill="#69AECD" d="M146-19V5c0,4.418-3.582,8-8,8h-24c-4.418,0-8-3.582-8-8v-24c0-4.418,3.582-8,8-8h24
			C142.418-27,146-23.418,146-19z"/>
		<path fill="#69AECD" d="M146,41v24c0,4.418-3.582,8-8,8h-24c-4.418,0-8-3.582-8-8V41c0-4.418,3.582-8,8-8h24
			C142.418,33,146,36.582,146,41z"/>
		<path fill="#78C88C" d="M106,125v-24c0-4.418,3.582-8,8-8h24c4.418,0,8,3.582,8,8v24c0,4.418-3.582,8-8,8h-24
			C109.582,133,106,129.418,106,125z"/>
		<path fill="#78C88C" d="M106,185v-24c0-4.418,3.582-8,8-8h24c4.418,0,8,3.582,8,8v24c0,4.418-3.582,8-8,8h-24
			C109.582,193,106,189.418,106,185z"/>
		<path fill="#69AECD" d="M106,245v-24c0-4.418,3.582-8,8-8h24c4.418,0,8,3.582,8,8v24c0,4.418-3.582,8-8,8h-24
			C109.582,253,106,249.418,106,245z"/>
		<path fill="#EC6D72" d="M138,313h-24c-4.418,0-8-3.582-8-8v-24c0-4.418,3.582-8,8-8h24c4.418,0,8,3.582,8,8v24
			C146,309.418,142.418,313,138,313z"/>
		<path fill="#EC6D72" d="M138,373h-24c-4.418,0-8-3.582-8-8v-24c0-4.418,3.582-8,8-8h24c4.418,0,8,3.582,8,8v24
			C146,369.418,142.418,373,138,373z"/>
		<path fill="#69AECD" d="M138,433h-24c-4.418,0-8-3.582-8-8v-24c0-4.418,3.582-8,8-8h24c4.418,0,8,3.582,8,8v24
			C146,429.418,142.418,433,138,433z"/>
		<path fill="#EC6D72" d="M159,5v-24c0-4.418,3.582-8,8-8h24c4.418,0,8,3.582,8,8V5c0,4.418-3.582,8-8,8h-24
			C162.582,13,159,9.418,159,5z"/>
		<path fill="#69AECD" d="M199,41v24c0,4.418-3.582,8-8,8h-24c-4.418,0-8-3.582-8-8V41c0-4.418,3.582-8,8-8h24
			C195.418,33,199,36.582,199,41z"/>
		<path fill="#EC6D72" d="M191,133h-24c-4.418,0-8-3.582-8-8v-24c0-4.418,3.582-8,8-8h24c4.418,0,8,3.582,8,8v24
			C199,129.418,195.418,133,191,133z"/>
		<path fill="#F6E472" d="M159,185v-24c0-4.418,3.582-8,8-8h24c4.418,0,8,3.582,8,8v24c0,4.418-3.582,8-8,8h-24
			C162.582,193,159,189.418,159,185z"/>
		<path fill="#EC6D72" d="M199,221v24c0,4.418-3.582,8-8,8h-24c-4.418,0-8-3.582-8-8v-24c0-4.418,3.582-8,8-8h24
			C195.418,213,199,216.582,199,221z"/>
		<path fill="#F6E472" d="M167,273h24c4.418,0,8,3.582,8,8v24c0,4.418-3.582,8-8,8h-24c-4.418,0-8-3.582-8-8v-24
			C159,276.582,162.582,273,167,273z"/>
		<path fill="#78C88C" d="M199,341v24c0,4.418-3.582,8-8,8h-24c-4.418,0-8-3.582-8-8v-24c0-4.418,3.582-8,8-8h24
			C195.418,333,199,336.582,199,341z"/>
		<path fill="#EC6D72" d="M191,433h-24c-4.418,0-8-3.582-8-8v-24c0-4.418,3.582-8,8-8h24c4.418,0,8,3.582,8,8v24
			C199,429.418,195.418,433,191,433z"/>
		<path fill="#69AECD" d="M220-27h24c4.418,0,8,3.582,8,8V5c0,4.418-3.582,8-8,8h-24c-4.418,0-8-3.582-8-8v-24
			C212-23.418,215.582-27,220-27z"/>
		<path fill="#78C88C" d="M252,41v24c0,4.418-3.582,8-8,8h-24c-4.418,0-8-3.582-8-8V41c0-4.418,3.582-8,8-8h24
			C248.418,33,252,36.582,252,41z"/>
		<path fill="#69AECD" d="M220,93h24c4.418,0,8,3.582,8,8v24c0,4.418-3.582,8-8,8h-24c-4.418,0-8-3.582-8-8v-24
			C212,96.582,215.582,93,220,93z"/>
		<path fill="#F6E472" d="M212,185v-24c0-4.418,3.582-8,8-8h24c4.418,0,8,3.582,8,8v24c0,4.418-3.582,8-8,8h-24
			C215.582,193,212,189.418,212,185z"/>
		<path fill="#69AECD" d="M212,245v-24c0-4.418,3.582-8,8-8h24c4.418,0,8,3.582,8,8v24c0,4.418-3.582,8-8,8h-24
			C215.582,253,212,249.418,212,245z"/>
		<path fill="#EC6D72" d="M212,305v-24c0-4.418,3.582-8,8-8h24c4.418,0,8,3.582,8,8v24c0,4.418-3.582,8-8,8h-24
			C215.582,313,212,309.418,212,305z"/>
		<path fill="#EC6D72" d="M252,341v24c0,4.418-3.582,8-8,8h-24c-4.418,0-8-3.582-8-8v-24c0-4.418,3.582-8,8-8h24
			C248.418,333,252,336.582,252,341z"/>
		<path fill="#69AECD" d="M244,433h-24c-4.418,0-8-3.582-8-8v-24c0-4.418,3.582-8,8-8h24c4.418,0,8,3.582,8,8v24
			C252,429.418,248.418,433,244,433z"/>
		<path fill="#EC6D72" d="M297,13h-24c-4.418,0-8-3.582-8-8v-24c0-4.418,3.582-8,8-8h24c4.418,0,8,3.582,8,8V5
			C305,9.418,301.418,13,297,13z"/>
		<path fill="#78C88C" d="M305,41v24c0,4.418-3.582,8-8,8h-24c-4.418,0-8-3.582-8-8V41c0-4.418,3.582-8,8-8h24
			C301.418,33,305,36.582,305,41z"/>
		<path fill="#F6E472" d="M273,93h24c4.418,0,8,3.582,8,8v24c0,4.418-3.582,8-8,8h-24c-4.418,0-8-3.582-8-8v-24
			C265,96.582,268.582,93,273,93z"/>
		<path fill="#EC6D72" d="M305,161v24c0,4.418-3.582,8-8,8h-24c-4.418,0-8-3.582-8-8v-24c0-4.418,3.582-8,8-8h24
			C301.418,153,305,156.582,305,161z"/>
		<path fill="#78C88C" d="M273,213h24c4.418,0,8,3.582,8,8v24c0,4.418-3.582,8-8,8h-24c-4.418,0-8-3.582-8-8v-24
			C265,216.582,268.582,213,273,213z"/>
		<path fill="#F6E472" d="M305,281v24c0,4.418-3.582,8-8,8h-24c-4.418,0-8-3.582-8-8v-24c0-4.418,3.582-8,8-8h24
			C301.418,273,305,276.582,305,281z"/>
		<path fill="#78C88C" d="M265,365v-24c0-4.418,3.582-8,8-8h24c4.418,0,8,3.582,8,8v24c0,4.418-3.582,8-8,8h-24
			C268.582,373,265,369.418,265,365z"/>
		<path fill="#78C88C" d="M273,393h24c4.418,0,8,3.582,8,8v24c0,4.418-3.582,8-8,8h-24c-4.418,0-8-3.582-8-8v-24
			C265,396.582,268.582,393,273,393z"/>
		<path fill="#EC6D72" d="M358-19V5c0,4.418-3.582,8-8,8h-24c-4.418,0-8-3.582-8-8v-24c0-4.418,3.582-8,8-8h24
			C354.418-27,358-23.418,358-19z"/>
		<path fill="#69AECD" d="M350,73h-24c-4.418,0-8-3.582-8-8V41c0-4.418,3.582-8,8-8h24c4.418,0,8,3.582,8,8v24
			C358,69.418,354.418,73,350,73z"/>
		<path fill="#EC6D72" d="M318,125v-24c0-4.418,3.582-8,8-8h24c4.418,0,8,3.582,8,8v24c0,4.418-3.582,8-8,8h-24
			C321.582,133,318,129.418,318,125z"/>
		<path fill="#F6E472" d="M318,185v-24c0-4.418,3.582-8,8-8h24c4.418,0,8,3.582,8,8v24c0,4.418-3.582,8-8,8h-24
			C321.582,193,318,189.418,318,185z"/>
		<path fill="#69AECD" d="M358,221v24c0,4.418-3.582,8-8,8h-24c-4.418,0-8-3.582-8-8v-24c0-4.418,3.582-8,8-8h24
			C354.418,213,358,216.582,358,221z"/>
		<path fill="#78C88C" d="M358,281v24c0,4.418-3.582,8-8,8h-24c-4.418,0-8-3.582-8-8v-24c0-4.418,3.582-8,8-8h24
			C354.418,273,358,276.582,358,281z"/>
		<path fill="#78C88C" d="M326,333h24c4.418,0,8,3.582,8,8v24c0,4.418-3.582,8-8,8h-24c-4.418,0-8-3.582-8-8v-24
			C318,336.582,321.582,333,326,333z"/>
		<path fill="#EC6D72" d="M318,425v-24c0-4.418,3.582-8,8-8h24c4.418,0,8,3.582,8,8v24c0,4.418-3.582,8-8,8h-24
			C321.582,433,318,429.418,318,425z"/>
	</g>
</g>
<rect x="-3" y="-37" fill="url(#SVGID_3_)" width="374" height="454"/>
</svg>
